<svg xmlns="http://www.w3.org/2000/svg" width="16" height="111" viewBox="0 0 16 111" fill="none">
<path d="M8 0.666667C5.05448 0.666666 2.66667 3.05448 2.66667 6C2.66667 8.94552 5.05448 11.3333 8 11.3333C10.9455 11.3333 13.3333 8.94552 13.3333 6C13.3333 3.05448 10.9455 0.666667 8 0.666667ZM7.29289 110.707C7.68341 111.098 8.31658 111.098 8.7071 110.707L15.0711 104.343C15.4616 103.953 15.4616 103.319 15.0711 102.929C14.6805 102.538 14.0474 102.538 13.6568 102.929L8 108.586L2.34314 102.929C1.95262 102.538 1.31945 102.538 0.928928 102.929C0.538404 103.319 0.538404 103.953 0.928928 104.343L7.29289 110.707ZM7 6L7 110L9 110L9 6L7 6Z" fill="#000000"/>
</svg>